# xmcd
#
# Track frame offsets:
#	150
#	31133
#	49863
#	81563
#	103112
#	127442
#	147439
#	165179
#	182402
#	201343
#	235902
#	257881
#
# Disc length: 3858 seconds
#
# Revision: 0
# Processed by: cddbd v1.5.2PL0 Copyright (c) Steve Scherf et al.
# Submitted via: EasyCDDAExtractor 10.0.2.1
#
DISCID=ad0f100c
DTITLE=Various Artist - Men of Gospo
DYEAR=2006
DGENRE=Gospel
TTITLE0=Kirk Franklin feat Nu Nation - Smile Again
TTITLE1=Bishop Paul S Morton Snr - I Know He Cares
TTITLE2=Byron Gage - The Presence of The Lord is Here
TTITLE3=Percy Bady with guests The Soul Seekers - You Oughta Been There
TTITLE4=Kurt Carr and the Kurt Carr Singers - The Lord is Strong and Mighty
TTITLE5=The Mcclurkin Project - Every Beat of my Heart
TTITLE6=Jon Gibson - Get It Together
TTITLE7=RJ Helton - My Devotion
TTITLE8=God's Property - Up Above My Head
TTITLE9=Dr Bobby Jones and New life  - He's Sweet I Know
TTITLE10=Kirk Franklin and the Family - Silver and Gold
TTITLE11=Full Gospel Baptist Fellowship Mass Chior - Bow Down
EXTD=
EXTT0=
EXTT1=
EXTT2=
EXTT3=
EXTT4=
EXTT5=
EXTT6=
EXTT7=
EXTT8=
EXTT9=
EXTT10=
EXTT11=
PLAYORDER=
